<?xml version="1.0" standalone="no"?><!DOCTYPE svg PUBLIC "-//W3C//DTD SVG 1.1//EN" "http://www.w3.org/Graphics/SVG/1.1/DTD/svg11.dtd"><svg t="1486148655682" class="icon" style="" viewBox="0 0 1024 1024" version="1.1" xmlns="http://www.w3.org/2000/svg" p-id="2630" xmlns:xlink="http://www.w3.org/1999/xlink" width="16" height="16"><defs><style type="text/css"></style></defs><path d="M376.2368 533.0176c-12.4992 12.4992-32.7552 12.4992-45.2544 0l0 0c-12.4992-12.4992-12.4992-32.7552 0-45.2544l316.7808-316.7808c12.4992-12.4992 32.7552-12.4992 45.2544 0l0 0c12.4992 12.4992 12.4992 32.7552 0 45.2544L376.2368 533.0176z" p-id="2631"></path><path d="M693.0176 807.7632c12.4992 12.4992 12.4992 32.7552 0 45.2544l0 0c-12.4992 12.4992-32.7552 12.4992-45.2544 0L330.9824 536.2368c-12.4992-12.4992-12.4992-32.7552 0-45.2544l0 0c12.4992-12.4992 32.7552-12.4992 45.2544 0L693.0176 807.7632z" p-id="2632"></path></svg>